<svg width="20" height="13" viewBox="0 0 20 13" fill="none" xmlns="http://www.w3.org/2000/svg">
<path d="M2.35264 7.84349C3.0023 7.8435 3.52935 8.36968 3.52947 9.01931V11.372C3.52947 12.0217 3.00238 12.5488 2.35264 12.5488H1.17582C0.526236 12.5486 0 12.0216 0 11.372V9.01931C0.000117449 8.36979 0.526308 7.84368 1.17582 7.84349H2.35264ZM7.84248 5.48984C8.49222 5.48984 9.01931 6.01693 9.01931 6.66667V11.372C9.01931 12.0217 8.49222 12.5488 7.84248 12.5488H6.66667C6.01693 12.5488 5.48984 12.0217 5.48984 11.372V6.66667C5.48984 6.01693 6.01693 5.48984 6.66667 5.48984H7.84248ZM13.3333 2.74492C13.9829 2.74514 14.5091 3.27214 14.5091 3.92175V11.372C14.5091 12.0216 13.9829 12.5486 13.3333 12.5488H12.1565C11.5068 12.5488 10.9797 12.0217 10.9797 11.372V3.92175C10.9797 3.27201 11.5068 2.74492 12.1565 2.74492H13.3333ZM18.8232 0C19.4729 6.01583e-05 20 0.527124 20 1.17683V11.372C20 12.0217 19.4729 12.5487 18.8232 12.5488H17.6463C16.9967 12.5486 16.4705 12.0216 16.4705 11.372V1.17683C16.4705 0.527172 16.9967 0.000138512 17.6463 0H18.8232Z" fill="white"/>
</svg>
