<svg width="412" height="64" viewBox="0 0 412 64" fill="none" xmlns="http://www.w3.org/2000/svg">
<g filter="url(#filter0_d_1_10043)">
<path d="M4 32C4 16.536 16.536 4 32 4H380C395.464 4 408 16.536 408 32C408 47.464 395.464 60 380 60H32C16.536 60 4 47.464 4 32Z" fill="#3D3D3D"/>
<path d="M32 4.5H380C395.188 4.5 407.5 16.8122 407.5 32C407.5 47.1878 395.188 59.5 380 59.5H32C16.8122 59.5 4.5 47.1878 4.5 32C4.5 16.8122 16.8122 4.5 32 4.5Z" stroke="url(#paint0_linear_1_10043)"/>
</g>
<defs>
<filter id="filter0_d_1_10043" x="0" y="0" width="412" height="64" filterUnits="userSpaceOnUse" color-interpolation-filters="sRGB">
<feFlood flood-opacity="0" result="BackgroundImageFix"/>
<feColorMatrix in="SourceAlpha" type="matrix" values="0 0 0 0 0 0 0 0 0 0 0 0 0 0 0 0 0 0 127 0" result="hardAlpha"/>
<feOffset/>
<feGaussianBlur stdDeviation="2"/>
<feComposite in2="hardAlpha" operator="out"/>
<feColorMatrix type="matrix" values="0 0 0 0 0 0 0 0 0 0 0 0 0 0 0 0 0 0 0.25 0"/>
<feBlend mode="normal" in2="BackgroundImageFix" result="effect1_dropShadow_1_10043"/>
<feBlend mode="normal" in="SourceGraphic" in2="effect1_dropShadow_1_10043" result="shape"/>
</filter>
<linearGradient id="paint0_linear_1_10043" x1="4" y1="32" x2="408" y2="32" gradientUnits="userSpaceOnUse">
<stop stop-color="#00DAE7"/>
<stop offset="1" stop-color="#0079A8"/>
</linearGradient>
</defs>
</svg>
