<svg width="62" height="24" viewBox="0 0 62 24" fill="none" xmlns="http://www.w3.org/2000/svg">
<path d="M18.6531 18.5789C21.7252 18.5789 23.55 16.1765 23.55 12.1084C23.55 10.5765 23.257 9.28746 22.6962 8.29135C21.8842 6.74278 20.4863 5.90571 18.7201 5.90571C16.0917 5.90571 14.2334 7.67192 14.2334 10.1496C14.2334 12.4767 15.9076 14.1676 18.2095 14.1676C19.6241 14.1676 20.7709 13.5063 21.3401 12.3595H21.3652C21.3652 12.3595 21.3987 12.3595 21.4071 12.3595C21.4238 12.3595 21.4824 12.3595 21.4824 12.3595C21.4824 15.1218 20.4361 16.7708 18.6699 16.7708C17.6319 16.7708 16.8283 16.2016 16.5521 15.2892H14.4008C14.7608 17.2731 16.4433 18.5789 18.6531 18.5789ZM18.7285 12.4516C17.3389 12.4516 16.3512 11.4638 16.3512 10.0827C16.3512 8.735 17.3892 7.7054 18.7368 7.7054C20.0845 7.7054 21.1225 8.75174 21.1225 10.1162C21.1225 11.4638 20.1096 12.4516 18.7285 12.4516Z" fill="white"/>
<path d="M27.0827 18.4617C27.8779 18.4617 28.422 17.8925 28.422 17.1391C28.422 16.3774 27.8779 15.8166 27.0827 15.8166C26.2959 15.8166 25.7434 16.3774 25.7434 17.1391C25.7434 17.8925 26.2959 18.4617 27.0827 18.4617ZM27.0827 12.1837C27.8779 12.1837 28.422 11.6229 28.422 10.8695C28.422 10.1078 27.8779 9.54695 27.0827 9.54695C26.2959 9.54695 25.7434 10.1078 25.7434 10.8695C25.7434 11.6229 26.2959 12.1837 27.0827 12.1837Z" fill="white"/>
<path d="M36.2573 18.2859H38.3249V16.0342H39.9571V14.2094H38.3249V6.20706H35.2779C33.1434 9.42139 31.4442 12.1084 30.356 14.109V16.0342H36.2573V18.2859ZM32.3566 14.1341C33.7628 11.6564 35.0184 9.67251 36.1736 7.9649H36.2908V14.2596H32.3566V14.1341Z" fill="white"/>
<path d="M44.5613 18.2859H46.721V6.20706H44.5697L41.414 8.41691V10.4928L44.419 8.38343H44.5613V18.2859Z" fill="white"/>
</svg>
