<svg width="29" height="29" viewBox="0 0 29 29" fill="none" xmlns="http://www.w3.org/2000/svg">
<path d="M0.00988995 14.1056C0.0423188 13.8477 0.273846 13.2974 0.416382 13.0682C4.5801 8.78617 8.80791 4.529 13.1104 0.388677C14.1496 -0.215936 15.3397 -0.105869 16.265 0.654043L28.4311 12.8405C29.5005 14.1953 29.0088 16.279 27.4032 16.9469C27.275 17.0005 26.8187 17.1633 26.7132 17.1633H25.8919L25.8941 26.142C25.7855 27.539 24.5796 28.8409 23.1739 29H17.9634C17.5946 28.8349 17.3314 28.608 17.2839 28.179C17.1391 25.9272 17.477 23.4341 17.2862 21.2109C17.2334 20.5942 16.8322 20.1034 16.2303 19.9451C15.7545 19.82 13.1519 19.8207 12.6971 19.9677C12.2424 20.1147 11.866 20.5226 11.7469 20.9998L11.7325 28.1217C11.6858 28.5899 11.4678 28.8176 11.0538 29H5.84331C4.39231 28.7527 3.26484 27.6249 3.12306 26.142L3.12532 17.1633H2.30404C2.18413 17.1633 1.7158 16.9892 1.57552 16.9288C0.715029 16.5557 0.218038 15.7912 0.00988995 14.8979C0.0325147 14.6453 -0.0210306 14.3498 0.00988995 14.1048V14.1056Z" fill="#111111"/>
</svg>
