<svg width="18" height="13" viewBox="0 0 18 13" fill="none" xmlns="http://www.w3.org/2000/svg">
<path d="M6.39602 9.90047C7.89937 8.62894 10.1017 8.62894 11.605 9.90047C11.6805 9.96876 11.7243 10.0651 11.7265 10.1668C11.7286 10.2688 11.6889 10.3679 11.6161 10.4393L9.26233 12.8144C9.19339 12.8841 9.09908 12.9237 9.00102 12.9238C8.90286 12.9238 8.80871 12.8842 8.73971 12.8144L6.38488 10.4393C6.31215 10.3678 6.27233 10.2688 6.27448 10.1668C6.27674 10.0652 6.32061 9.96871 6.39602 9.90047ZM3.25524 6.73133C6.49416 3.71847 11.5099 3.71849 14.7488 6.73133C14.8219 6.80198 14.8643 6.89907 14.8653 7.00074C14.8663 7.10224 14.8264 7.20012 14.7549 7.27218L13.3937 8.6476C13.2534 8.7878 13.027 8.79025 12.8832 8.65368C11.8197 7.69061 10.4358 7.15771 9.00102 7.15773C7.56708 7.15832 6.18379 7.69118 5.12087 8.65368C4.97705 8.7902 4.75061 8.78784 4.61041 8.6476L3.25018 7.27218C3.17839 7.20018 3.13885 7.10241 3.13978 7.00074C3.14074 6.89906 3.1821 6.80197 3.25524 6.73133ZM0.114458 3.57029C5.08215 -1.19004 12.9189 -1.19015 17.8866 3.57029C17.9585 3.641 17.9994 3.73786 18 3.83869C18.0006 3.93955 17.9607 4.03654 17.8896 4.1081L16.5274 5.48352C16.387 5.62438 16.1593 5.6254 16.0169 5.48656C14.1243 3.68729 11.6124 2.68425 9.00102 2.68406C6.38935 2.68406 3.87705 3.68722 1.98414 5.48656C1.84184 5.62556 1.61399 5.62442 1.47367 5.48352L0.110406 4.1081C0.0394004 4.03649 -0.000654753 3.93954 8.09824e-06 3.83869C0.000671665 3.73783 0.0424963 3.64096 0.114458 3.57029Z" fill="white"/>
</svg>
