<?xml version="1.0" encoding="UTF-8"?>
<svg version="1.1" xmlns="http://www.w3.org/2000/svg" width="31" height="31">
<path d="M0 0 C0.99 0.33 1.98 0.66 3 1 C3 1.66 3 2.32 3 3 C5.31 3 7.62 3 10 3 C10 2.01 10 1.02 10 0 C10.99 0 11.98 0 13 0 C13 0.99 13 1.98 13 3 C15.31 3 17.62 3 20 3 C20 2.01 20 1.02 20 0 C20.99 0.33 21.98 0.66 23 1 C22.67 1.66 22.34 2.32 22 3 C22.99 3 23.98 3 25 3 C25.73308324 7.39849947 25.99994255 11.40611767 25.88671875 15.8828125 C26.01665476 18.31127178 26.59439953 20.41130827 27.25 22.75 C28.19623329 26.65659174 28.19623329 26.65659174 26.5 29.625 C23.20262256 31.43855759 21.56980081 30.98739171 18 30 C17.01 29.67 16.02 29.34 15 29 C13.66474283 28.92026524 12.32587917 28.89228662 10.98828125 28.90234375 C10.23095703 28.90556641 9.47363281 28.90878906 8.69335938 28.91210938 C7.90767578 28.92048828 7.12199219 28.92886719 6.3125 28.9375 C5.51521484 28.94201172 4.71792969 28.94652344 3.89648438 28.95117188 C1.93095743 28.9629415 -0.03453085 28.98087652 -2 29 C-3.27861615 26.44276771 -3.11336609 24.63262898 -3.09765625 21.7734375 C-3.09443359 20.7421875 -3.09121094 19.7109375 -3.08789062 18.6484375 C-3.07951172 17.56820313 -3.07113281 16.48796875 -3.0625 15.375 C-3.05798828 14.28703125 -3.05347656 13.1990625 -3.04882812 12.078125 C-3.03701776 9.38536211 -3.02054778 6.69270812 -3 4 C-1.68 3.67 -0.36 3.34 1 3 C0.67 2.01 0.34 1.02 0 0 Z M1 13 C2 17 2 17 2 17 Z M9 13 C10 16 10 16 10 16 Z M13 13 C14 16 14 16 14 16 Z M5 14 C6 16 6 16 6 16 Z M1 20 C1 21.65 1 23.3 1 25 C2.65 24.67 4.3 24.34 6 24 C5.67 22.68 5.34 21.36 5 20 C3.68 20 2.36 20 1 20 Z M21 21 C22 24 22 24 22 24 Z M14 23 C15 26 15 26 15 26 Z " fill="#D8D8D8" transform="translate(3,0)"/>
<path d="M0 0 C0.99 0.33 1.98 0.66 3 1 C3 1.66 3 2.32 3 3 C5.31 3 7.62 3 10 3 C10 2.01 10 1.02 10 0 C10.99 0 11.98 0 13 0 C13 0.99 13 1.98 13 3 C15.31 3 17.62 3 20 3 C20 2.01 20 1.02 20 0 C20.99 0.33 21.98 0.66 23 1 C22.67 1.66 22.34 2.32 22 3 C22.99 3 23.98 3 25 3 C25 4.65 25 6.3 25 8 C16.09 8 7.18 8 -2 8 C-2.33 6.68 -2.66 5.36 -3 4 C-1.68 3.67 -0.36 3.34 1 3 C0.67 2.01 0.34 1.02 0 0 Z " fill="#E9E9E9" transform="translate(3,0)"/>
<path d="M0 0 C0.94409556 2.98538327 1.72079113 5.87500847 2 9 C0.5 11.625 0.5 11.625 -2 13 C-5.61675826 13 -7.46816018 12.3681968 -10.4375 10.3125 C-12 8 -12 8 -12.0625 4.9375 C-11 2 -11 2 -8.8125 0.0625 C-5.43099473 -1.21495755 -3.45932284 -0.88494305 0 0 Z M-5 3 C-4 6 -4 6 -4 6 Z " fill="#CCCCCC" transform="translate(29,18)"/>
<path d="M0 0 C2.475 0.495 2.475 0.495 5 1 C4.67 2.65 4.34 4.3 4 6 C2.68 6 1.36 6 0 6 C0 4.02 0 2.04 0 0 Z M3 2 C4 4 4 4 4 4 Z " fill="#8D8D8D" transform="translate(5,12)"/>
<path d="M0 0 C0.99 0 1.98 0 3 0 C3 0.99 3 1.98 3 3 C2.01 3 1.02 3 0 3 C0 2.01 0 1.02 0 0 Z " fill="#D2D2D2" transform="translate(5,21)"/>
</svg>
